<svg width="274" height="40" viewBox="0 0 274 40" fill="none" xmlns="http://www.w3.org/2000/svg">
<path d="M23.096 5.304V28.248C23.096 31.8 22.088 34.536 20.072 36.456C18.088 38.376 15.4 39.336 12.008 39.336C8.45599 39.336 5.60799 38.328 3.46399 36.312C1.31999 34.296 0.247986 31.432 0.247986 27.72H8.40799C8.40799 29.128 8.69599 30.2 9.27199 30.936C9.84799 31.64 10.68 31.992 11.768 31.992C12.76 31.992 13.528 31.672 14.072 31.032C14.616 30.392 14.888 29.464 14.888 28.248V5.304H23.096Z" fill="#141414"/>
<path d="M56.174 12.216V39H47.966V35.352C47.134 36.536 45.998 37.496 44.558 38.232C43.15 38.936 41.582 39.288 39.854 39.288C37.806 39.288 35.998 38.84 34.43 37.944C32.862 37.016 31.646 35.688 30.782 33.96C29.918 32.232 29.486 30.2 29.486 27.864V12.216H37.646V26.76C37.646 28.552 38.11 29.944 39.038 30.936C39.966 31.928 41.214 32.424 42.782 32.424C44.382 32.424 45.646 31.928 46.574 30.936C47.502 29.944 47.966 28.552 47.966 26.76V12.216H56.174Z" fill="#141414"/>
<path d="M70.2777 3.48V39H62.0697V3.48H70.2777Z" fill="#141414"/>
<path d="M80.354 9.432C78.914 9.432 77.73 9.016 76.802 8.184C75.906 7.32 75.458 6.264 75.458 5.016C75.458 3.736 75.906 2.68 76.802 1.848C77.73 0.984002 78.914 0.552002 80.354 0.552002C81.762 0.552002 82.914 0.984002 83.81 1.848C84.738 2.68 85.202 3.736 85.202 5.016C85.202 6.264 84.738 7.32 83.81 8.184C82.914 9.016 81.762 9.432 80.354 9.432ZM84.434 12.216V39H76.226V12.216H84.434Z" fill="#141414"/>
<path d="M102.574 39.384C99.9502 39.384 97.5822 38.824 95.4702 37.704C93.3902 36.584 91.7422 34.984 90.5262 32.904C89.3422 30.824 88.7502 28.392 88.7502 25.608C88.7502 22.856 89.3582 20.44 90.5742 18.36C91.7902 16.248 93.4542 14.632 95.5662 13.512C97.6782 12.392 100.046 11.832 102.67 11.832C105.294 11.832 107.662 12.392 109.774 13.512C111.886 14.632 113.55 16.248 114.766 18.36C115.982 20.44 116.59 22.856 116.59 25.608C116.59 28.36 115.966 30.792 114.718 32.904C113.502 34.984 111.822 36.584 109.678 37.704C107.566 38.824 105.198 39.384 102.574 39.384ZM102.574 32.28C104.142 32.28 105.47 31.704 106.558 30.552C107.678 29.4 108.238 27.752 108.238 25.608C108.238 23.464 107.694 21.816 106.606 20.664C105.55 19.512 104.238 18.936 102.67 18.936C101.07 18.936 99.7422 19.512 98.6862 20.664C97.6302 21.784 97.1022 23.432 97.1022 25.608C97.1022 27.752 97.6142 29.4 98.6382 30.552C99.6942 31.704 101.006 32.28 102.574 32.28Z" fill="#141414"/>
<path d="M129.725 22.104C129.725 18.776 130.445 15.816 131.885 13.224C133.325 10.6 135.325 8.568 137.885 7.128C140.477 5.656 143.405 4.92 146.669 4.92C150.669 4.92 154.093 5.976 156.941 8.088C159.789 10.2 161.693 13.08 162.653 16.728H153.629C152.957 15.32 151.997 14.248 150.749 13.512C149.533 12.776 148.141 12.408 146.573 12.408C144.045 12.408 141.997 13.288 140.429 15.048C138.861 16.808 138.077 19.16 138.077 22.104C138.077 25.048 138.861 27.4 140.429 29.16C141.997 30.92 144.045 31.8 146.573 31.8C148.141 31.8 149.533 31.432 150.749 30.696C151.997 29.96 152.957 28.888 153.629 27.48H162.653C161.693 31.128 159.789 34.008 156.941 36.12C154.093 38.2 150.669 39.24 146.669 39.24C143.405 39.24 140.477 38.52 137.885 37.08C135.325 35.608 133.325 33.576 131.885 30.984C130.445 28.392 129.725 25.432 129.725 22.104Z" fill="#141414"/>
<path d="M192.927 25.176C192.927 25.944 192.879 26.744 192.783 27.576H174.207C174.335 29.24 174.863 30.52 175.791 31.416C176.751 32.28 177.919 32.712 179.295 32.712C181.343 32.712 182.767 31.848 183.567 30.12H192.303C191.855 31.88 191.039 33.464 189.855 34.872C188.703 36.28 187.247 37.384 185.487 38.184C183.727 38.984 181.759 39.384 179.583 39.384C176.959 39.384 174.623 38.824 172.575 37.704C170.527 36.584 168.927 34.984 167.775 32.904C166.623 30.824 166.047 28.392 166.047 25.608C166.047 22.824 166.607 20.392 167.727 18.312C168.879 16.232 170.479 14.632 172.527 13.512C174.575 12.392 176.927 11.832 179.583 11.832C182.175 11.832 184.479 12.376 186.495 13.464C188.511 14.552 190.079 16.104 191.199 18.12C192.351 20.136 192.927 22.488 192.927 25.176ZM184.527 23.016C184.527 21.608 184.047 20.488 183.087 19.656C182.127 18.824 180.927 18.408 179.487 18.408C178.111 18.408 176.943 18.808 175.983 19.608C175.055 20.408 174.479 21.544 174.255 23.016H184.527Z" fill="#141414"/>
<path d="M208.153 39.384C205.817 39.384 203.737 38.984 201.913 38.184C200.089 37.384 198.649 36.296 197.593 34.92C196.537 33.512 195.945 31.944 195.817 30.216H203.929C204.025 31.144 204.457 31.896 205.225 32.472C205.993 33.048 206.937 33.336 208.057 33.336C209.081 33.336 209.865 33.144 210.409 32.76C210.985 32.344 211.273 31.816 211.273 31.176C211.273 30.408 210.873 29.848 210.073 29.496C209.273 29.112 207.977 28.696 206.185 28.248C204.265 27.8 202.665 27.336 201.385 26.856C200.105 26.344 199.001 25.56 198.073 24.504C197.145 23.416 196.681 21.96 196.681 20.136C196.681 18.6 197.097 17.208 197.929 15.96C198.793 14.68 200.041 13.672 201.673 12.936C203.337 12.2 205.305 11.832 207.577 11.832C210.937 11.832 213.577 12.664 215.497 14.328C217.449 15.992 218.569 18.2 218.857 20.952H211.273C211.145 20.024 210.729 19.288 210.025 18.744C209.353 18.2 208.457 17.928 207.337 17.928C206.377 17.928 205.641 18.12 205.129 18.504C204.617 18.856 204.361 19.352 204.361 19.992C204.361 20.76 204.761 21.336 205.561 21.72C206.393 22.104 207.673 22.488 209.401 22.872C211.385 23.384 213.001 23.896 214.249 24.408C215.497 24.888 216.585 25.688 217.513 26.808C218.473 27.896 218.969 29.368 219.001 31.224C219.001 32.792 218.553 34.2 217.657 35.448C216.793 36.664 215.529 37.624 213.865 38.328C212.233 39.032 210.329 39.384 208.153 39.384Z" fill="#141414"/>
<path d="M222.391 25.56C222.391 22.808 222.903 20.392 223.927 18.312C224.983 16.232 226.407 14.632 228.199 13.512C229.991 12.392 231.991 11.832 234.199 11.832C236.087 11.832 237.735 12.216 239.143 12.984C240.583 13.752 241.687 14.76 242.455 16.008V12.216H250.663V39H242.455V35.208C241.655 36.456 240.535 37.464 239.095 38.232C237.687 39 236.039 39.384 234.151 39.384C231.975 39.384 229.991 38.824 228.199 37.704C226.407 36.552 224.983 34.936 223.927 32.856C222.903 30.744 222.391 28.312 222.391 25.56ZM242.455 25.608C242.455 23.56 241.879 21.944 240.727 20.76C239.607 19.576 238.231 18.984 236.599 18.984C234.967 18.984 233.575 19.576 232.423 20.76C231.303 21.912 230.743 23.512 230.743 25.56C230.743 27.608 231.303 29.24 232.423 30.456C233.575 31.64 234.967 32.232 236.599 32.232C238.231 32.232 239.607 31.64 240.727 30.456C241.879 29.272 242.455 27.656 242.455 25.608Z" fill="#141414"/>
<path d="M264.809 16.68C265.769 15.208 266.969 14.056 268.409 13.224C269.849 12.36 271.449 11.928 273.209 11.928V20.616H270.953C268.905 20.616 267.369 21.064 266.345 21.96C265.321 22.824 264.809 24.36 264.809 26.568V39H256.601V12.216H264.809V16.68Z" fill="#141414"/>
</svg>
